PathFileType	4	(X/Y/Z)	C:\Users\86182\Documents\cortex\Trimmed_M1_H2.trc
DataRate	CameraRate	NumFrames	NumMarkers	Units	OrigDataRate	OrigDataStartFrame	OrigNumFrames
100.00	100.00	      155	2	mm	100.00	201	      1001
Frame#	Time	gripper			box			
		X1	Y1	Z1	X2	Y2	Z2	

201	2.000	201.08923	195.84433	223.31921	203.67659	194.46890	85.21622	
202	2.010	201.11006	195.85770	223.76158	203.66570	194.49442	85.64339	
203	2.020	201.12662	195.87041	224.19789	203.65231	194.51797	86.07268	
204	2.030	201.13925	195.88246	224.62900	203.63673	194.53999	86.50370	
205	2.040	201.15013	195.89333	225.05643	203.62042	194.55954	86.93328	
206	2.050	201.16095	195.90225	225.48064	203.60446	194.57469	87.35760	
207	2.060	201.17184	195.90880	225.90106	203.58923	194.58511	87.77619	
208	2.070	201.18149	195.91270	226.31755	203.57480	194.59300	88.19164	
209	2.080	201.18782	195.91417	226.73106	203.56104	194.60133	88.60621	
210	2.090	201.18901	195.91437	227.14346	203.54851	194.61169	89.02063	
211	2.100	201.18367	195.91476	227.55792	203.53879	194.62402	89.43448	
212	2.110	201.17047	195.91585	227.97806	203.53281	194.63831	89.84676	
213	2.120	201.14830	195.91704	228.40584	203.52931	194.65564	90.25645	
214	2.130	201.11763	195.91820	228.84097	203.52528	194.67747	90.66340	
215	2.140	201.08047	195.92014	229.28238	203.51712	194.70422	91.06831	
216	2.150	201.03850	195.92276	229.72874	203.50136	194.73436	91.47165	
217	2.160	200.99258	195.92381	230.17761	203.47360	194.76309	91.87296	
218	2.170	200.94423	195.92021	230.62628	203.42766	194.78209	92.27264	
219	2.180	200.89522	195.91063	231.07327	203.35625	194.78075	92.67365	
220	2.190	200.84607	195.89601	231.51743	203.25284	194.74889	93.08044	
221	2.200	200.79681	195.87810	231.95656	203.11343	194.67929	93.49590	
222	2.210	200.74962	195.85831	232.38831	202.93796	194.56937	93.91956	
223	2.220	200.70880	195.83875	232.81206	202.73318	194.42342	94.34818	
224	2.230	200.67628	195.82230	233.22955	202.51788	194.25850	94.77679	
225	2.240	200.64900	195.81061	233.64464	202.33090	194.11298	95.19931	
226	2.250	200.62364	195.80309	234.06131	202.22519	194.04012	95.60999	
227	2.260	200.60194	195.79799	234.48102	202.22960	194.06973	96.00797	
228	2.270	200.58908	195.79443	234.90259	202.32074	194.18063	96.39945	
229	2.280	200.58853	195.79330	235.32547	202.44852	194.32613	96.79274	
230	2.290	200.60057	195.79657	235.75127	202.57500	194.46991	97.19196	
231	2.300	200.62320	195.80527	236.18134	202.68378	194.59317	97.59708	
232	2.310	200.65262	195.81778	236.61574	202.77274	194.68991	98.00823	
233	2.320	200.68419	195.83105	237.05466	202.84537	194.76239	98.42793	
234	2.330	200.71303	195.84357	237.49936	202.90401	194.81589	98.85863	
235	2.340	200.73399	195.85535	237.95070	202.94910	194.85536	99.29916	
236	2.350	200.74309	195.86641	238.40726	202.98204	194.88475	99.74518	
237	2.360	200.73970	195.87656	238.86534	203.00522	194.90654	100.19286	
238	2.370	200.72588	195.88573	239.32072	203.01894	194.92195	100.64122	
239	2.380	200.70409	195.89388	239.77081	203.02086	194.93219	101.09035	
240	2.390	200.67709	195.90147	240.21510	203.00883	194.93852	101.53838	
241	2.400	200.64726	195.90947	240.65317	202.98239	194.94075	101.98088	
242	2.410	200.61485	195.91782	241.08371	202.94188	194.93675	102.41396	
243	2.420	200.57994	195.92529	241.50665	202.88927	194.92493	102.83716	
244	2.430	200.54608	195.93155	241.92418	202.83043	194.90643	103.25301	
245	2.440	200.51895	195.93715	242.33943	202.77385	194.88483	103.66411	
246	2.450	200.50122	195.94180	242.75513	202.72496	194.86337	104.07117	
247	2.460	200.49123	195.94443	243.17297	202.68324	194.84317	104.47298	
248	2.470	200.48615	195.94514	243.59340	202.64621	194.82434	104.86774	
249	2.480	200.48517	195.94545	244.01611	202.61531	194.80824	105.25475	
250	2.490	200.48961	195.94670	244.44113	202.59601	194.79732	105.63567	
251	2.500	200.50154	195.94933	244.86868	202.59236	194.79329	106.01467	
252	2.510	200.52177	195.95317	245.29803	202.60245	194.79594	106.39706	
253	2.520	200.54875	195.95825	245.72787	202.61992	194.80328	106.78703	
254	2.530	200.57962	195.96500	246.15804	202.63884	194.81245	107.18610	
255	2.540	200.61118	195.97321	246.58975	202.65663	194.82097	107.59260	
256	2.550	200.64000	195.98122	247.02330	202.67336	194.82761	108.00352	
257	2.560	200.66257	195.98676	247.45618	202.68877	194.83252	108.41757	
258	2.570	200.67593	195.98901	247.88467	202.70018	194.83617	108.83519	
259	2.580	200.67845	195.98941	248.30664	202.70341	194.83835	109.25507	
260	2.590	200.67125	195.99042	248.72253	202.69633	194.83897	109.67244	
261	2.600	200.65874	195.99344	249.13388	202.68076	194.83871	110.08281	
262	2.610	200.64684	195.99738	249.54172	202.65985	194.83798	110.48704	
263	2.620	200.63879	195.99998	249.94644	202.63541	194.83585	110.89066	
264	2.630	200.63266	196.00060	250.34908	202.60835	194.83105	111.29787	
265	2.640	200.62431	196.00050	250.75252	202.58072	194.82375	111.70774	
266	2.650	200.61276	196.00085	251.16026	202.55527	194.81516	112.11751	
267	2.660	200.60110	196.00151	251.57385	202.53322	194.80675	112.52716	
268	2.670	200.59306	196.00204	251.99257	202.51434	194.80029	112.93938	
269	2.680	200.58968	196.00291	252.41577	202.49969	194.79771	113.35698	
270	2.690	200.58937	196.00563	252.84373	202.49213	194.79971	113.78152	
271	2.700	200.59096	196.01195	253.27667	202.49310	194.80576	114.21257	
272	2.710	200.59505	196.02219	253.71397	202.50052	194.81499	114.64776	
273	2.720	200.60243	196.03487	254.15446	202.51053	194.82671	115.08492	
274	2.730	200.61229	196.04814	254.59644	202.52098	194.84032	115.52382	
275	2.740	200.62302	196.06148	255.03821	202.53244	194.85551	115.96468	
276	2.750	200.63341	196.07555	255.47925	202.54517	194.87186	116.40584	
277	2.760	200.64249	196.09119	255.91971	202.55630	194.88814	116.84467	
278	2.770	200.64920	196.10825	256.35892	202.56207	194.90346	117.27960	
279	2.780	200.65251	196.12558	256.79532	202.56137	194.91835	117.70988	
280	2.790	200.65128	196.14183	257.22742	202.55617	194.93387	118.13483	
281	2.800	200.64423	196.15625	257.65442	202.54858	194.94951	118.55498	
282	2.810	200.63113	196.16875	258.07629	202.53821	194.96352	118.97229	
283	2.820	200.61360	196.17921	258.49399	202.52255	194.97520	119.38844	
284	2.830	200.59436	196.18777	258.90817	202.49965	194.98602	119.80406	
285	2.840	200.57605	196.19519	259.31946	202.46991	194.99803	120.22067	
286	2.850	200.56050	196.20230	259.73044	202.43596	195.01195	120.64178	
287	2.860	200.54865	196.20929	260.14526	202.40146	195.02661	121.07010	
288	2.870	200.54106	196.21616	260.56686	202.37015	195.04016	121.50412	
289	2.880	200.53813	196.22369	260.99524	202.34537	195.05185	121.93966	
290	2.890	200.53882	196.23286	261.42917	202.32892	195.06258	122.37466	
291	2.900	200.53995	196.24373	261.86731	202.32011	195.07361	122.81059	
292	2.910	200.53833	196.25563	262.30841	202.31674	195.08498	123.24963	
293	2.920	200.53249	196.26778	262.75171	202.31642	195.09645	123.69221	
294	2.930	200.52174	196.27910	263.19672	202.31567	195.10921	124.13665	
295	2.940	200.50554	196.28871	263.64246	202.30914	195.12506	124.58082	
296	2.950	200.48438	196.29694	264.08795	202.29193	195.14441	125.02439	
297	2.960	200.45905	196.30457	264.53293	202.26372	195.16599	125.46814	
298	2.970	200.42854	196.31151	264.97687	202.23128	195.18828	125.90981	
299	2.980	200.39049	196.31676	265.41809	202.20798	195.20947	126.34118	
300	2.990	200.34387	196.31898	265.85449	202.21182	195.22664	126.75048	
301	3.000	200.29042	196.31641	266.28464	202.26358	195.23723	127.12704	
302	3.010	200.23404	196.30795	266.70758	202.38402	195.24136	127.46216	
303	3.020	200.17987	196.29515	267.12415	202.59013	195.24196	127.74799	
304	3.030	200.13257	196.28163	267.53763	202.88806	195.24258	127.98080	
305	3.040	200.09436	196.27008	267.95120	203.25931	195.24455	128.17004	
306	3.050	200.06569	196.26108	268.36572	203.64012	195.24484	128.34953	
307	3.060	200.04750	196.25414	268.78113	203.91895	195.23781	128.57797	
308	3.070	200.04123	196.24863	269.19879	203.99832	195.22070	128.90720	
309	3.080	200.04646	196.24396	269.62024	203.88351	195.19759	129.33734	
310	3.090	200.06021	196.23900	270.04556	203.67700	195.17624	129.82079	
311	3.100	200.07945	196.23244	270.47406	203.47850	195.16116	130.31168	
312	3.110	200.10281	196.22406	270.90540	203.31088	195.15053	130.80048	
313	3.120	200.12834	196.21468	271.33926	203.13010	195.13936	131.30829	
314	3.130	200.15170	196.20503	271.77573	202.89690	195.12520	131.85275	
315	3.140	200.16870	196.19588	272.21475	202.62854	195.11078	132.42258	
316	3.150	200.17755	196.18782	272.65527	202.37102	195.10069	132.99130	
317	3.160	200.17856	196.18074	273.09601	202.15463	195.09682	133.54007	
318	3.170	200.17322	196.17445	273.53693	201.98964	195.09854	134.06024	
319	3.180	200.16296	196.16956	273.97845	201.87704	195.10513	134.54858	
320	3.190	200.14766	196.16652	274.41934	201.81499	195.11609	135.00525	
321	3.200	200.12651	196.16510	274.85751	201.80287	195.13103	135.43152	
322	3.210	200.10054	196.16565	275.29156	201.84256	195.15016	135.82675	
323	3.220	200.07187	196.16951	275.72122	201.93581	195.17421	136.18825	
324	3.230	200.04074	196.17776	276.14694	202.07932	195.20239	136.51663	
325	3.240	200.00565	196.19009	276.56995	202.25867	195.23096	136.82248	
326	3.250	199.96652	196.20477	276.99149	202.43837	195.25432	137.12970	
327	3.260	199.92683	196.21902	277.41214	202.56802	195.26825	137.46767	
328	3.270	199.89281	196.23032	277.83224	202.62885	195.27364	137.84561	
329	3.280	199.87085	196.23825	278.25256	202.66510	195.27609	138.23898	
330	3.290	199.86436	196.24413	278.67346	202.74028	195.28052	138.61520	
331	3.300	199.87318	196.24846	279.09393	202.87392	195.28717	138.96652	
332	3.310	199.89587	196.25061	279.51282	203.03572	195.29391	139.31088	
333	3.320	199.93141	196.25063	279.93076	203.19595	195.30098	139.66431	
334	3.330	199.97769	196.25002	280.35004	203.35483	195.31052	140.02505	
335	3.340	200.02945	196.25082	280.77295	203.49617	195.32124	140.39746	
336	3.350	200.07974	196.25426	281.19955	203.54485	195.32709	140.81639	
337	3.360	200.12402	196.25995	281.62781	203.42044	195.32243	141.32239	
338	3.370	200.16197	196.26636	282.05637	203.12846	195.30768	141.91360	
339	3.380	200.19550	196.27252	282.48608	202.76372	195.28877	142.54010	
340	3.390	200.22501	196.27867	282.91785	202.43359	195.27278	143.14301	
341	3.400	200.24763	196.28525	283.34967	202.20680	195.26436	143.68454	
342	3.410	200.26013	196.29204	283.77795	202.11241	195.26466	144.15039	
343	3.420	200.26250	196.29846	284.20093	202.14812	195.27277	144.54340	
344	3.430	200.25729	196.30438	284.61948	202.28288	195.28737	144.88052	
345	3.440	200.24600	196.31010	285.03546	202.45476	195.30574	145.19305	
346	3.450	200.22694	196.31563	285.44928	202.58559	195.32262	145.51784	
347	3.460	200.19739	196.32054	285.86005	202.63678	195.33401	145.87131	
348	3.470	200.15726	196.32492	286.26785	202.64491	195.34119	146.23682	
349	3.480	200.11084	196.32956	286.67462	202.67279	195.34833	146.59128	
350	3.490	200.06535	196.33517	287.08231	202.73947	195.35748	146.93433	
351	3.500	200.02847	196.34151	287.49036	202.81578	195.36694	147.28210	
352	3.510	200.00551	196.34796	287.89575	202.88696	195.37462	147.63589	
353	3.520	199.99777	196.35417	288.29544	202.99393	195.38132	147.96925	
354	3.530	200.00337	196.36026	288.68854	203.18608	195.38962	148.25702	
355	3.540	200.02084	196.36674	289.07480	203.44891	195.40044	148.50864	
